<svg width="62" height="56" viewBox="0 0 62 56" fill="none" xmlns="http://www.w3.org/2000/svg">
<path d="M31 45.1111C34.875 45.1111 38.1688 43.75 40.8812 41.0278C43.5938 38.3056 44.95 35 44.95 31.1111C44.95 27.2222 43.5938 23.9167 40.8812 21.1944C38.1688 18.4722 34.875 17.1111 31 17.1111C27.125 17.1111 23.8312 18.4722 21.1187 21.1944C18.4062 23.9167 17.05 27.2222 17.05 31.1111C17.05 35 18.4062 38.3056 21.1187 41.0278C23.8312 43.75 27.125 45.1111 31 45.1111ZM31 38.8889C28.83 38.8889 26.9958 38.137 25.4975 36.6333C23.9992 35.1296 23.25 33.2889 23.25 31.1111C23.25 28.9333 23.9992 27.0926 25.4975 25.5889C26.9958 24.0852 28.83 23.3333 31 23.3333C33.17 23.3333 35.0042 24.0852 36.5025 25.5889C38.0008 27.0926 38.75 28.9333 38.75 31.1111C38.75 33.2889 38.0008 35.1296 36.5025 36.6333C35.0042 38.137 33.17 38.8889 31 38.8889ZM6.2 56C4.495 56 3.03542 55.3907 1.82125 54.1722C0.607083 52.9537 0 51.4889 0 49.7778V12.4444C0 10.7333 0.607083 9.26852 1.82125 8.05C3.03542 6.83148 4.495 6.22222 6.2 6.22222H15.965L19.84 2.02222C20.4083 1.4 21.0929 0.907407 21.8937 0.544444C22.6946 0.181481 23.5342 0 24.4125 0H37.5875C38.4658 0 39.3054 0.181481 40.1063 0.544444C40.9071 0.907407 41.5917 1.4 42.16 2.02222L46.035 6.22222H55.8C57.505 6.22222 58.9646 6.83148 60.1787 8.05C61.3929 9.26852 62 10.7333 62 12.4444V49.7778C62 51.4889 61.3929 52.9537 60.1787 54.1722C58.9646 55.3907 57.505 56 55.8 56H6.2ZM6.2 49.7778H55.8V12.4444H43.245L37.5875 6.22222H24.4125L18.755 12.4444H6.2V49.7778Z" fill="white"/>
</svg>
