<svg width="52" height="42" viewBox="0 0 52 42" fill="none" xmlns="http://www.w3.org/2000/svg">
<path d="M5.2 42C3.77 42 2.54583 41.4517 1.5275 40.355C0.509167 39.2583 0 37.94 0 36.4V19.11C0 18.3633 0.13 17.6517 0.39 16.975C0.65 16.2983 1.01833 15.7033 1.495 15.19L8.905 7.21C9.38167 6.69667 9.93417 6.3 10.5625 6.02C11.1908 5.74 11.8517 5.6 12.545 5.6H13V2.8C13 2.00667 13.2492 1.34167 13.7475 0.805C14.2458 0.268333 14.8633 0 15.6 0C16.3367 0 16.9542 0.268333 17.4525 0.805C17.9508 1.34167 18.2 2.00667 18.2 2.8V5.6H39.455C40.1483 5.6 40.8092 5.74 41.4375 6.02C42.0658 6.3 42.6183 6.69667 43.095 7.21L50.505 15.19C50.9817 15.7033 51.35 16.2983 51.61 16.975C51.87 17.6517 52 18.3633 52 19.11V36.4C52 37.94 51.4908 39.2583 50.4725 40.355C49.4542 41.4517 48.23 42 46.8 42H5.2ZM36.4 36.4H46.8V19.11L41.6 13.51L36.4 19.11V36.4ZM31.2 36.4V22.4H5.2V36.4H31.2Z" fill="white"/>
</svg>
