<svg width="48" height="43" viewBox="0 0 48 43" fill="none" xmlns="http://www.w3.org/2000/svg">
<path d="M8.2915 42.6666C6.84706 42.6666 5.6915 42.0798 4.82484 40.9062C3.95817 39.7326 3.66928 38.4055 3.95817 36.925C4.35539 35.0833 4.62623 33.2416 4.77067 31.4C4.91511 29.5583 5.00539 27.7166 5.0415 25.875C3.56095 25.2972 2.37831 24.3764 1.49359 23.1125C0.608865 21.8486 0.166504 20.4222 0.166504 18.8333V17.3166C0.166504 16.4861 0.410254 15.7278 0.897754 15.0416C1.38525 14.3555 2.02623 13.85 2.82067 13.525C6.25123 12.1528 9.48317 10.4555 12.5165 8.43331C15.5498 6.41109 18.4748 4.20831 21.2915 1.82498C21.6887 1.49998 22.113 1.25623 22.5644 1.09373C23.0158 0.931226 23.4943 0.849976 23.9998 0.849976C24.5054 0.849976 24.9839 0.931226 25.4353 1.09373C25.8866 1.25623 26.3109 1.49998 26.7082 1.82498C29.5248 4.20831 32.4498 6.41109 35.4832 8.43331C38.5165 10.4555 41.7484 12.1528 45.179 13.525C45.9734 13.85 46.6144 14.3555 47.1019 15.0416C47.5894 15.7278 47.8332 16.4861 47.8332 17.3166V18.8333C47.8332 20.4222 47.3908 21.8486 46.5061 23.1125C45.6214 24.3764 44.4387 25.2972 42.9582 25.875C42.9943 27.7166 43.0846 29.5583 43.229 31.4C43.3734 33.2416 43.6443 35.0833 44.0415 36.925C44.3304 38.4055 44.0415 39.7326 43.1748 40.9062C42.3082 42.0798 41.1526 42.6666 39.7082 42.6666H8.2915ZM10.7832 14.5H37.2165C34.8332 13.1639 32.5491 11.7194 30.3644 10.1666C28.1797 8.61386 26.0582 6.95275 23.9998 5.18331C21.9415 6.95275 19.82 8.61386 17.6353 10.1666C15.4505 11.7194 13.1665 13.1639 10.7832 14.5ZM29.4165 22.0833C30.3193 22.0833 31.0866 21.7673 31.7186 21.1354C32.3505 20.5034 32.6665 19.7361 32.6665 18.8333H26.1665C26.1665 19.7361 26.4825 20.5034 27.1144 21.1354C27.7464 21.7673 28.5137 22.0833 29.4165 22.0833ZM18.5832 22.0833C19.4859 22.0833 20.2533 21.7673 20.8853 21.1354C21.5172 20.5034 21.8332 19.7361 21.8332 18.8333H15.3332C15.3332 19.7361 15.6491 20.5034 16.2811 21.1354C16.913 21.7673 17.6804 22.0833 18.5832 22.0833ZM7.74984 22.0833C8.65261 22.0833 9.41998 21.7673 10.0519 21.1354C10.6839 20.5034 10.9998 19.7361 10.9998 18.8333H4.49984C4.49984 19.7361 4.81581 20.5034 5.44775 21.1354C6.0797 21.7673 6.84706 22.0833 7.74984 22.0833ZM8.07484 38.3333H13.8707C14.1957 36.1666 14.4484 34.018 14.629 31.8875C14.8096 29.7569 14.954 27.6083 15.0623 25.4416C14.7012 25.2611 14.3672 25.0715 14.0603 24.8729C13.7533 24.6743 13.4554 24.4305 13.1665 24.1416C12.6609 24.6472 12.0832 25.0805 11.4332 25.4416C10.7832 25.8028 10.0971 26.0736 9.37484 26.2541C9.30261 28.3125 9.17623 30.3437 8.99567 32.3479C8.81511 34.3521 8.50817 36.3472 8.07484 38.3333ZM18.2582 38.3333H29.7415C29.4526 36.3472 29.2269 34.3611 29.0644 32.375C28.9019 30.3889 28.7665 28.3847 28.6582 26.3625C27.7554 26.2903 26.9068 26.0646 26.1123 25.6854C25.3179 25.3062 24.6137 24.8097 23.9998 24.1958C23.3859 24.8097 22.6818 25.3062 21.8873 25.6854C21.0929 26.0646 20.2443 26.2903 19.3415 26.3625C19.2332 28.3847 19.0978 30.3889 18.9353 32.375C18.7728 34.3611 18.5471 36.3472 18.2582 38.3333ZM34.129 38.3333H39.9248C39.4915 36.3472 39.1846 34.3521 39.004 32.3479C38.8234 30.3437 38.6971 28.3125 38.6248 26.2541C37.9026 26.0736 37.2165 25.8118 36.5665 25.4687C35.9165 25.1257 35.3387 24.6833 34.8332 24.1416C34.5443 24.4305 34.2464 24.6743 33.9394 24.8729C33.6325 25.0715 33.2984 25.2611 32.9373 25.4416C33.0457 27.6083 33.1991 29.7569 33.3978 31.8875C33.5964 34.018 33.8401 36.1666 34.129 38.3333ZM40.2498 22.0833C41.1526 22.0833 41.92 21.7673 42.5519 21.1354C43.1839 20.5034 43.4998 19.7361 43.4998 18.8333H36.9998C36.9998 19.7361 37.3158 20.5034 37.9478 21.1354C38.5797 21.7673 39.3471 22.0833 40.2498 22.0833Z" fill="white"/>
</svg>
