<svg width="51" height="47" viewBox="0 0 51 47" fill="none" xmlns="http://www.w3.org/2000/svg">
<path d="M11.4375 35.5416C12.4271 35.5416 13.2682 35.2196 13.9609 34.5755C14.6536 33.9314 15 33.1493 15 32.2291C15 31.309 14.6536 30.5269 13.9609 29.8828C13.2682 29.2387 12.4271 28.9166 11.4375 28.9166C10.4479 28.9166 9.60677 29.2387 8.91406 29.8828C8.22135 30.5269 7.875 31.309 7.875 32.2291C7.875 33.1493 8.22135 33.9314 8.91406 34.5755C9.60677 35.2196 10.4479 35.5416 11.4375 35.5416ZM28.0625 35.5416C29.0521 35.5416 29.8932 35.2196 30.5859 34.5755C31.2786 33.9314 31.625 33.1493 31.625 32.2291C31.625 31.309 31.2786 30.5269 30.5859 29.8828C29.8932 29.2387 29.0521 28.9166 28.0625 28.9166C27.0729 28.9166 26.2318 29.2387 25.5391 29.8828C24.8464 30.5269 24.5 31.309 24.5 32.2291C24.5 33.1493 24.8464 33.9314 25.5391 34.5755C26.2318 35.2196 27.0729 35.5416 28.0625 35.5416ZM10.25 42.1666V43.2708C10.25 44.191 9.90365 44.9731 9.21094 45.6172C8.51823 46.2613 7.67708 46.5833 6.6875 46.5833C5.69792 46.5833 4.85677 46.2613 4.16406 45.6172C3.47135 44.9731 3.125 44.191 3.125 43.2708V39.8479C2.4125 39.1118 1.83854 38.2929 1.40312 37.3911C0.967708 36.4894 0.75 35.5048 0.75 34.4375V13.4583C0.75 12.3541 0.977604 11.2408 1.43281 10.1182C1.88802 8.99564 2.8974 7.99269 4.46094 7.10935C6.02448 6.22602 8.33021 5.55432 11.3781 5.09425C14.426 4.63418 18.5229 4.51456 23.6687 4.7354C23.3521 5.4347 23.0849 6.14321 22.8672 6.86092C22.6495 7.57863 22.4812 8.30554 22.3625 9.04165C17.9292 8.93123 14.426 9.07845 11.8531 9.48331C9.28021 9.88817 7.51875 10.4771 6.56875 11.25H22.125C22.125 11.9861 22.1844 12.7222 22.3031 13.4583C22.4219 14.1944 22.6 14.9305 22.8375 15.6666H5.5V22.2916H27.1125C28.6167 23.6903 30.3682 24.776 32.3672 25.5489C34.3661 26.3219 36.4937 26.7083 38.75 26.7083V34.4375C38.75 35.5048 38.5323 36.4894 38.0969 37.3911C37.6615 38.2929 37.0875 39.1118 36.375 39.8479V43.2708C36.375 44.191 36.0286 44.9731 35.3359 45.6172C34.6432 46.2613 33.8021 46.5833 32.8125 46.5833C31.8229 46.5833 30.9818 46.2613 30.2891 45.6172C29.5964 44.9731 29.25 44.191 29.25 43.2708V42.1666H10.25ZM29.25 26.7083H5.5H34H29.25ZM38.75 22.2916C35.4646 22.2916 32.6641 21.2151 30.3484 19.062C28.0328 16.9088 26.875 14.3048 26.875 11.25C26.875 8.19512 28.0328 5.59113 30.3484 3.438C32.6641 1.28488 35.4646 0.208313 38.75 0.208313C42.0354 0.208313 44.8359 1.28488 47.1516 3.438C49.4672 5.59113 50.625 8.19512 50.625 11.25C50.625 14.3048 49.4672 16.9088 47.1516 19.062C44.8359 21.2151 42.0354 22.2916 38.75 22.2916ZM10.25 37.75H29.25C30.5562 37.75 31.6745 37.3175 32.6047 36.4526C33.5349 35.5877 34 34.5479 34 33.3333V26.7083H5.5V33.3333C5.5 34.5479 5.9651 35.5877 6.89531 36.4526C7.82552 37.3175 8.94375 37.75 10.25 37.75ZM39.9375 10.8083V5.72915C39.9375 5.4347 39.8187 5.17706 39.5812 4.95623C39.3438 4.7354 39.0667 4.62498 38.75 4.62498C38.4333 4.62498 38.1562 4.7354 37.9188 4.95623C37.6812 5.17706 37.5625 5.4347 37.5625 5.72915V10.8083C37.5625 11.1028 37.6219 11.388 37.7406 11.664C37.8594 11.9401 38.0177 12.1701 38.2156 12.3541L41.7781 15.7219C42.0156 15.9427 42.3125 16.0531 42.6688 16.0531C43.025 16.0531 43.3219 15.9427 43.5594 15.7219C43.7969 15.501 43.9156 15.225 43.9156 14.8937C43.9156 14.5625 43.7969 14.2864 43.5594 14.0656L39.9375 10.8083Z" fill="white"/>
</svg>
