<svg width="44" height="44" viewBox="0 0 44 44" fill="none" xmlns="http://www.w3.org/2000/svg">
<path d="M13.3335 39.875C9.79461 38.5028 6.74322 36.4715 4.17933 33.7812C1.61544 31.0909 0.333496 27.8861 0.333496 24.1666C0.333496 23.5527 0.541135 23.0382 0.956413 22.6229C1.37169 22.2076 1.88627 22 2.50016 22H4.66683V6.61664C4.66683 6.07497 4.84738 5.60553 5.2085 5.2083C5.56961 4.81108 6.021 4.57636 6.56266 4.50414L41.8793 0.54997C42.3849 0.477748 42.8092 0.604137 43.1522 0.929137C43.4953 1.25414 43.6668 1.66941 43.6668 2.17497C43.6668 2.57219 43.5224 2.92428 43.2335 3.23122C42.9446 3.53816 42.6015 3.70969 42.2043 3.7458L18.7502 6.39997V10.0833H42.0418C42.5113 10.0833 42.8995 10.2368 43.2064 10.5437C43.5134 10.8507 43.6668 11.2389 43.6668 11.7083C43.6668 12.1777 43.5134 12.5659 43.2064 12.8729C42.8995 13.1798 42.5113 13.3333 42.0418 13.3333H18.7502V22H41.5002C42.114 22 42.6286 22.2076 43.0439 22.6229C43.4592 23.0382 43.6668 23.5527 43.6668 24.1666C43.6668 27.8861 42.3849 31.0909 39.821 33.7812C37.2571 36.4715 34.2057 38.5028 30.6668 39.875V41.5C30.6668 42.1139 30.4592 42.6284 30.0439 43.0437C29.6286 43.459 29.114 43.6666 28.5002 43.6666H15.5002C14.8863 43.6666 14.3717 43.459 13.9564 43.0437C13.5411 42.6284 13.3335 42.1139 13.3335 41.5V39.875ZM13.3335 10.0833H15.5002V6.77914L13.3335 6.9958V10.0833ZM7.91683 10.0833H10.0835V7.37497L7.91683 7.59164V10.0833ZM13.3335 22H15.5002V13.3333H13.3335V22ZM7.91683 22H10.0835V13.3333H7.91683V22ZM17.6668 39.3333H26.3335V36.95L29.0418 35.8666C31.2446 35 33.1946 33.7541 34.8918 32.1291C36.5891 30.5041 37.8168 28.5722 38.5752 26.3333H5.42516C6.1835 28.5722 7.41127 30.5132 9.1085 32.1562C10.8057 33.7993 12.7557 35.0361 14.9585 35.8666L17.6668 36.95V39.3333Z" fill="white"/>
</svg>
