<svg width="161" height="61" viewBox="0 0 161 61" fill="none" xmlns="http://www.w3.org/2000/svg">
<path d="M127.933 14.1163L157.099 3.86963L147.236 31.4674" stroke="#ED2123" stroke-width="5" stroke-linecap="round" stroke-linejoin="round"/>
<path d="M131.366 27.8608H126.949V42.8284H131.366V27.8608Z" fill="white"/>
<path d="M131.366 46.2493H126.949V54.8242H131.366V46.2493Z" fill="white"/>
<path d="M5.85199 55.8612C5.85199 55.8612 5.85199 55.9231 5.85199 56.016V56.372H5.8676C5.96123 57.5948 6.4606 60.4737 9.22274 60.4737H26.9036V57.9662H26.8723V49.6544H26.9036V47.1469H5.85199V55.8921V55.8612ZM10.2683 49.6389H22.456V57.9508H10.2683V49.6389ZM26.9192 28.0312H4.55675V30.5387H22.5029V41.0485H0V43.5559H33.5514V41.0485H26.9192V28.0157V28.0312ZM130.788 46.2492H109.331V48.7566H130.788V46.2492ZM93.5382 49.0198H97.9545V27.8609H93.5382V36.5597H86.8436V39.0672H93.5382V49.0043V49.0198ZM130.929 33.9903H122.08V36.4978H130.929V33.9903ZM54.6654 49.3603C59.1441 48.4471 62.4993 44.7942 62.4993 40.4293C62.4993 37.767 61.2352 35.3679 59.2378 33.6963H65.714V31.1888H54.6654V27.6133H50.2491V31.1888H39.2005V33.6963H45.6767C43.6793 35.3679 42.4152 37.767 42.4152 40.4293C42.4152 44.7942 45.7704 48.4316 50.2491 49.3603V53.9109H35.3928V56.4184H69.5217V53.9109H54.6654V49.3603ZM46.8628 40.4293C46.8628 37.5039 49.3596 35.1357 52.4495 35.1357C55.5393 35.1357 58.0362 37.5039 58.0362 40.4293C58.0362 43.3547 55.5393 45.7229 52.4495 45.7229C49.3596 45.7229 46.8628 43.3547 46.8628 40.4293ZM80.9135 58.477L80.8823 47.7351H76.466L76.4972 56.3874C76.4972 56.3874 76.4972 56.4494 76.4972 56.5268V56.8982H76.5128C76.6065 58.1055 77.1214 60.9845 79.8836 60.969L98.61 60.9071V58.3996L80.9135 58.4615V58.477ZM131.506 58.4151L113.81 58.477V54.8087H131.069V52.3012H109.378V52.394H109.362L109.393 56.9137H109.409C109.502 58.1365 110.017 61 112.78 61L131.506 60.9381V58.4306V58.4151ZM86.0633 28.8206H72.1434V31.3281H81.647C81.2569 38.2314 70.8637 44.0977 70.8637 44.0977L72.0341 45.7693C86.5939 39.578 86.0477 28.8051 86.0477 28.8051L86.0633 28.8206ZM111.968 32.2413C113.404 33.139 117.945 38.1695 117.555 42.9523H121.331C121.331 42.9523 118.99 32.5044 112.624 28.7587C112.624 28.7587 110.017 27.5978 108.987 29.1456C107.958 30.6935 104.181 42.813 104.181 42.813H107.692C107.692 42.813 110.548 31.3281 111.984 32.2413H111.968Z" fill="white"/>
</svg>
