<?xml version="1.0" encoding="utf-8"?>
<!-- Generator: Adobe Illustrator 27.2.0, SVG Export Plug-In . SVG Version: 6.00 Build 0)  -->
<svg version="1.1" id="Layer_1" xmlns="http://www.w3.org/2000/svg" xmlns:xlink="http://www.w3.org/1999/xlink" x="0px" y="0px"
	 viewBox="0 0 1000 1000" style="enable-background:new 0 0 1000 1000;" xml:space="preserve">
<style type="text/css">
	.st0{fill:#231916;}
</style>
<g>
	<path d="M486.64,582.24c-16.7,0-32.51-7.55-42.93-20.7c-9.39-11.82-19.45-31.97-14.05-60.82c0.75-4,1.43-7.82,2.09-11.46
		c4.93-27.35,8.36-46.42,22.67-62.76c-15.53-12.78-23.87-18-28.11-20.13c-0.91,17.24-4.23,30.21-4.39,30.8
		c-0.75,2.89-3.21,5.01-6.18,5.33c-25.97,2.79-32.39,7.91-32.45,7.96c-5.11,4.46-9.54,9.18-13.45,13.34
		c-3.31,3.52-6.16,6.56-8.83,8.86c-3.98,3.45-8.2,6.07-12.56,7.79l-1.4,0.53c-2.52,0.93-6.32,2.34-9.65,4.69
		c-3.24,2.29-7.71,1.52-10-1.72c-2.29-3.23-1.52-7.71,1.72-10c4.86-3.44,9.92-5.31,12.94-6.43l1.16-0.43c2.8-1.1,5.64-2.89,8.4-5.29
		c2.11-1.81,4.72-4.6,7.75-7.82c4.1-4.37,8.75-9.31,14.06-13.95c2.47-2.37,10.76-7.95,35.63-11.19c1.13-5.71,2.82-16.02,3.08-27.83
		c0.13-6.28,4.13-8.76,5.85-9.53c5.48-2.47,13.68-2.49,46.91,25.07c6.35-5.08,14.07-9.91,23.8-14.91
		c48.3-24.81,99.06,6.82,110.11,25.77c1.29,2.21,2.35,4.21,3.32,6.02c4.77,8.94,5.42,10.08,23.85,9.66
		c5.67-0.15,11.7-0.11,18.46,0.13c3.96,0.14,7.06,3.46,6.92,7.42c-0.13,3.97-3.44,7.19-7.41,6.93c-6.47-0.22-12.25-0.27-17.61-0.13
		c-25.05,0.55-29.79-4-36.86-17.25c-0.88-1.66-1.87-3.5-3.05-5.54c-7.01-12.03-49.12-41.84-91.16-20.24
		c-7.74,3.97-14,7.77-19.18,11.64c7.29,6.32,15,13.27,23,20.72c0.57,0.54,1.09,1,1.6,1.46c4.51,3.76,45.06,39.24,37.55,90.07
		c-3.9,26.19-20.73,41.75-47.39,43.8C489.44,582.19,488.04,582.24,486.64,582.24z M465.38,435.76
		c-11.84,13.4-14.71,29.35-19.52,56.04c-0.66,3.67-1.35,7.52-2.11,11.55c-3.54,18.9,0.22,35.47,11.19,49.27
		c8.33,10.5,21.32,16.12,34.81,15.15c19.86-1.53,31.4-12.16,34.29-31.6c6.37-43.08-28.68-73.71-32.69-77.06
		c-0.81-0.71-1.45-1.29-2.1-1.91C480.95,449.47,472.93,442.27,465.38,435.76z"/>
</g>
<g>
	<path d="M802.61,613.37H642.93c-0.24,0-0.48-0.01-0.72-0.04c-33.6-3.4-42.71-20.26-44.42-33.81c-1.92-14.66,5.11-29.79,17.91-38.49
		c7.45-5.07,20.09-12.82,37.96-20.91c16.44-7.43,22.63-24.53,24.93-37.56c0.68-3.9,4.42-6.5,8.31-5.82c3.9,0.69,6.51,4.41,5.82,8.31
		c-2.89,16.44-10.99,38.13-33.14,48.15c-16.94,7.67-28.82,14.95-35.8,19.7c-8.37,5.7-12.98,15.43-11.75,24.8
		c1.53,12.15,12.06,19.31,31.28,21.33h159.3c3.97,0,7.17,3.21,7.17,7.17S806.57,613.37,802.61,613.37z"/>
</g>
<g>
	<path d="M350.42,613.37H201.29c-3.96,0-7.17-3.21-7.17-7.17s3.21-7.17,7.17-7.17h149.13c9.95,0,19.19-2.77,26.72-8.02
		c6.73-4.69,10.59-10.17,11.47-16.28c2.26-15.86-8.34-20.02-10.49-20.69c-6.82-2.67-61.54-25.13-62.25-53.9
		c-0.1-3.96,3.03-7.25,6.99-7.35c3.94-0.27,7.25,3.03,7.35,7c0.34,13.84,30.97,32.13,52.6,40.71c7.93,2.23,23.32,13.01,20,36.27
		c-1.44,10.08-7.49,19.07-17.47,26.02C375.39,609.71,363.31,613.37,350.42,613.37z"/>
</g>
<g>
	<path class="st0" d="M685.66,483.8c-41.75-3.31-41.46-33.41-41.46-33.41c18.04,0.62,31.05,2.5,31.05,2.5s10.41,0.32,11.81,12.91
		C687.05,465.8,687.47,473.58,685.66,483.8z"/>
	<path d="M685.67,490.98c-0.19,0-0.39-0.01-0.57-0.02c-47.87-3.8-48.07-40.27-48.07-40.64c0.02-1.93,0.82-3.78,2.21-5.11
		c1.4-1.33,3.34-2.04,5.21-1.99c16.84,0.57,29.26,2.21,31.48,2.52c5.88,0.39,16.65,4.81,18.26,19.27c0.05,0.75,0.48,9.14-1.46,20.05
		C692.11,488.5,689.11,490.98,685.67,490.98z M653.08,457.99c2.64,6.37,9.36,14.82,26.44,17.82c0.56-5.71,0.38-9.59,0.37-9.64
		c-0.55-4.93-3.41-5.98-5.05-6.13C674.22,459.98,665.64,458.76,653.08,457.99z"/>
</g>
<g>
	<path class="st0" d="M323.04,499.96c-0.26-10.12,4.7-16.29,10.22-20.15C333.26,479.81,354.31,490.84,323.04,499.96z"/>
	<path d="M323.04,507.13c-1.5,0-2.99-0.48-4.23-1.38c-1.8-1.31-2.88-3.38-2.94-5.61c-0.28-10.87,4.31-19.93,13.27-26.2
		c2.2-1.53,5.08-1.72,7.44-0.48c1.95,1.02,11.66,6.61,10.72,16.01c-1,10.05-13.18,14.73-22.26,17.37
		C324.39,507.04,323.71,507.13,323.04,507.13z"/>
</g>
<g>
	<path class="st0" d="M149.11,685.76L54,678.23l-2.24-5.8l65.27-69.6l2.5,6.49l-18.89,20.13l0.05-4.6l21.48,55.51l-3.09-3.25
		l27.52,2.17L149.11,685.76z M60.56,672.56l55.31,4.36l-0.18,3.6L95.8,629.1l2.69,2.89l-38.06,40.22L60.56,672.56z"/>
	<path class="st0" d="M114.68,586.73l-59.38,8.66l-0.88-6.03l13.63-2l-0.04-0.24c-4.59-1.63-8.56-4.3-11.89-8
		c-3.34-3.71-5.43-8.45-6.27-14.24c-0.78-5.31-0.62-9.91,0.45-13.81c1.08-3.9,3.24-7.09,6.49-9.58c3.26-2.49,7.74-4.15,13.46-4.98
		l36.33-5.3l0.92,6.28l-35.97,5.24c-3.86,0.57-7.06,1.7-9.61,3.38c-2.55,1.68-4.39,3.99-5.52,6.91c-1.14,2.91-1.39,6.54-0.76,10.89
		c0.7,4.83,2.35,8.93,4.94,12.29c2.59,3.36,5.66,5.86,9.22,7.47c3.56,1.62,7.23,2.14,11.02,1.6l32.95-4.81L114.68,586.73z"/>
	<path class="st0" d="M30.06,508.22l-8.54,0.02l-0.03-9.02l8.54-0.03L30.06,508.22z M106.54,506.65l-60.01,0.18l-0.02-6.34
		l60.01-0.18L106.54,506.65z"/>
	<path class="st0" d="M104.39,475.81l-58.94-11.29l1.15-5.99l13.54,2.59l0.05-0.24c-2.08-1.65-4.06-3.68-5.91-6.1
		c-1.85-2.42-3.22-5.21-4.11-8.37c-0.88-3.15-0.98-6.56-0.27-10.23c1.12-5.83,3.39-10.45,6.81-13.85c3.43-3.4,7.42-5.11,11.98-5.15
		l0.09-0.48c-3.7-2.7-6.63-6.12-8.78-10.25c-2.14-4.13-2.64-9.24-1.47-15.32c0.91-4.7,2.47-8.67,4.7-11.88
		c2.23-3.22,5.28-5.42,9.15-6.63c3.87-1.21,8.69-1.25,14.43-0.15l36.06,6.92l-1.19,6.23l-35.22-6.75
		c-6.39-1.22-11.38-0.85-14.99,1.1c-3.6,1.96-5.99,5.98-7.15,12.04c-0.9,4.72-0.67,8.9,0.7,12.56c1.37,3.66,3.52,6.66,6.47,9
		c2.95,2.35,6.46,3.91,10.53,4.69l32.22,6.17l-1.19,6.24l-35.22-6.76c-6.31-1.21-11.33-0.59-15.06,1.84
		c-3.73,2.43-6.1,6.2-7.08,11.31c-0.87,4.55-0.53,8.7,1.04,12.44c1.56,3.73,3.8,6.8,6.73,9.23c2.93,2.43,6.07,3.96,9.42,4.6
		l32.71,6.27L104.39,475.81z"/>
	<path class="st0" d="M142.32,339.85c-1.96,4.2-4.39,7.62-7.28,10.26c-2.89,2.65-5.97,4.33-9.22,5.06
		c-3.25,0.72-6.43,0.36-9.52-1.08c-4.06-1.89-6.67-4.61-7.84-8.16c-1.17-3.55-1.07-8.04,0.29-13.46c1.36-5.42,3.78-11.86,7.24-19.3
		l6.14-13.15l5.08,2.37l-5.98,12.82c-2.37,5.09-4.21,9.48-5.53,13.17c-1.32,3.69-2.09,6.83-2.31,9.42c-0.21,2.59,0.11,4.72,1,6.38
		c0.88,1.67,2.35,2.98,4.42,3.94c3.46,1.62,6.86,1.32,10.18-0.91c3.32-2.21,6.05-5.61,8.18-10.17c1.92-4.13,2.88-8.35,2.87-12.65
		c-0.01-4.32-0.9-8.18-2.67-11.6c-1.76-3.43-4.26-5.9-7.51-7.41l-13.37-6.24c-4.64-2.17-8.89-2.2-12.75-0.09
		c-3.85,2.1-7.15,6.1-9.9,12c-1.82,3.91-3.07,7.92-3.73,12.05c-0.67,4.13-0.71,8.35-0.12,12.66l-6.11,0.12
		c-0.4-2.79-0.48-5.76-0.21-8.92c0.26-3.16,0.81-6.31,1.65-9.46c0.84-3.15,1.92-6.12,3.22-8.93c2.2-4.72,4.85-8.57,7.95-11.57
		c3.1-2.99,6.55-4.86,10.35-5.61c3.79-0.74,7.95-0.06,12.44,2.03l35.82,16.71l-2.53,5.41l-12.27-5.72l-0.16,0.07
		c1.48,2.21,2.73,4.9,3.77,8.08s1.49,6.61,1.38,10.33C145.17,332.03,144.18,335.87,142.32,339.85z"/>
	<path class="st0" d="M178.63,275.6c-2.91,4.41-6.55,7.08-10.95,7.97c-4.39,0.9-8.83-0.12-13.31-3.07L96.4,242.33l3.49-5.29
		l57.04,37.56c2.18,1.43,4.32,2.27,6.46,2.5c2.13,0.23,4.1-0.09,5.91-0.99c1.81-0.9,3.36-2.35,4.66-4.31
		c0.67-1.02,1.31-2.14,1.91-3.34c0.6-1.21,1.16-2.43,1.67-3.65l4.65,3.36c-0.4,1.2-0.88,2.42-1.45,3.65
		C180.19,273.05,179.48,274.31,178.63,275.6z"/>
	<path class="st0" d="M212.72,230.38l-58-63.48l27.2-24.85c4.92-4.5,9.75-7.6,14.49-9.28c4.74-1.68,9.22-1.95,13.46-0.81
		c4.23,1.14,8.16,3.69,11.78,7.65c3.62,3.96,5.82,8.15,6.6,12.56c0.78,4.41,0.13,8.88-1.94,13.42s-5.57,9.06-10.49,13.56
		l-22.52,20.56l24.11,26.39L212.72,230.38z M189.27,195.31l22.15-20.24c6.12-5.6,9.66-10.92,10.6-15.97
		c0.95-5.04-0.83-10.03-5.33-14.96c-4.49-4.92-9.25-7.1-14.25-6.56c-5,0.55-10.59,3.65-16.78,9.3l-22.15,20.24L189.27,195.31z"/>
	<path class="st0" d="M277.94,175.67l-32.28-50.59l5.14-3.28l7.09,11.11l0.2-0.13c-0.74-4.64,0.15-9.16,2.69-13.59
		c2.54-4.41,6.08-8.26,10.64-11.55l4.08-2.89l3.83,4.65l-6.15,4.64c-5.7,4.22-9.28,8.96-10.74,14.24
		c-1.46,5.28-0.81,10.07,1.95,14.38l18.9,29.61L277.94,175.67z"/>
	<path class="st0" d="M345.9,139.49c-5.9,2.55-11.52,3.59-16.86,3.11c-5.35-0.48-10.13-2.37-14.36-5.68
		c-4.22-3.31-7.56-7.8-10.02-13.47c-2.45-5.67-3.43-11.14-2.92-16.41c0.51-5.28,2.42-10.02,5.73-14.25
		c3.31-4.22,7.88-7.59,13.7-10.11c5.97-2.59,11.6-3.63,16.92-3.14c5.31,0.49,10.06,2.35,14.25,5.59c4.19,3.24,7.52,7.69,9.97,13.36
		c2.46,5.68,3.45,11.18,2.97,16.52c-0.48,5.35-2.35,10.12-5.63,14.34C356.37,133.55,351.79,136.93,345.9,139.49z M343.41,134.05
		c7.09-3.07,11.75-7.61,13.97-13.63c2.23-6.02,1.86-12.45-1.11-19.32c-2.94-6.79-7.36-11.43-13.28-13.93
		c-5.91-2.49-12.4-2.2-19.49,0.87s-11.75,7.61-13.97,13.62c-2.23,6.02-1.87,12.42,1.07,19.21c2.97,6.87,7.41,11.54,13.32,14.03
		C329.82,137.4,336.32,137.12,343.41,134.05z"/>
	<path class="st0" d="M416.94,116.28c-6.31,1.59-11.74,1.16-16.3-1.3c-4.56-2.46-7.64-6.84-9.23-13.15l-8.58-34.07l-13.6,3.43
		l-1.37-5.44l13.6-3.43l-4.5-17.86l6.15-1.55l4.5,17.86l24.72-6.23l1.37,5.44l-24.72,6.22l8.31,33c1.34,5.28,3.6,8.77,6.78,10.43
		c3.19,1.67,7.1,1.91,11.76,0.75c2.13-0.54,4.08-1.2,5.85-1.98c1.77-0.78,3.46-1.83,5.05-3.16l2.64,5
		c-1.26,1.32-3.03,2.51-5.33,3.54C421.76,114.84,419.39,115.66,416.94,116.28z"/>
	<path class="st0" d="M471.48,108.3c-6.65,0.57-12.62-0.11-17.93-2.07c-5.31-1.94-9.56-5.11-12.76-9.49
		c-3.2-4.37-5.07-9.84-5.64-16.41c-0.53-6.07,0.27-11.53,2.39-16.36c2.11-4.83,5.42-8.78,9.94-11.82
		c4.51-3.03,10.08-4.85,16.73-5.42c6.56-0.57,12.12,0.24,16.67,2.41c4.55,2.18,8.1,5.45,10.64,9.8c2.54,4.36,4.07,9.57,4.6,15.64
		l0.17,1.95l-56.99,4.92l-0.48-5.59l54.08-4.67l-2.92,3.07c-0.65-7.53-3.2-13.21-7.65-17.03s-10.36-5.41-17.74-4.78
		c-4.78,0.41-8.96,1.74-12.57,3.97c-3.6,2.23-6.36,5.24-8.28,9.04c-1.92,3.8-2.66,8.2-2.22,13.23l0.08,0.97
		c0.46,5.35,1.99,9.79,4.58,13.31c2.59,3.54,6.04,6.1,10.33,7.67c4.3,1.6,9.16,2.16,14.59,1.69c4.13-0.36,8.13-1.21,12.02-2.57
		c3.88-1.35,7.37-3.55,10.45-6.59l3.45,4.6c-2.84,3.1-6.58,5.53-11.25,7.28C481.11,106.8,476.34,107.88,471.48,108.3z"/>
	<path class="st0" d="M545.64,109.49c-6.4-0.59-11.9-2.34-16.48-5.26c-4.59-2.91-8.01-6.81-10.25-11.67
		c-2.25-4.86-3.08-10.4-2.5-16.64c0.6-6.4,2.45-11.8,5.54-16.21c3.11-4.41,7.2-7.64,12.3-9.7c5.09-2.06,10.83-2.79,17.23-2.2
		c4.62,0.43,8.84,1.58,12.67,3.45c3.83,1.86,6.99,4.3,9.49,7.31L570.04,63c-2.45-2.6-5.34-4.73-8.66-6.38s-6.75-2.64-10.31-2.97
		c-7.78-0.72-14.24,0.99-19.4,5.12c-5.16,4.13-8.11,10.05-8.81,17.74c-0.71,7.69,1.1,13.94,5.42,18.76
		c4.34,4.81,10.35,7.57,18.04,8.28c3.64,0.34,7.22,0.02,10.75-0.96c3.52-0.98,6.63-2.45,9.35-4.4l2.59,5.14
		c-2.83,2.35-6.24,4.07-10.22,5.17C554.79,109.6,550.42,109.94,545.64,109.49z"/>
	<path class="st0" d="M606.31,120.99c-6.32-1.53-10.92-4.45-13.81-8.75c-2.89-4.3-3.56-9.61-2.02-15.93l8.3-34.14l-13.63-3.31
		l1.32-5.45l13.63,3.32l4.34-17.89l6.17,1.5l-4.35,17.89l24.77,6.03l-1.32,5.44l-24.77-6.03l-8.05,33.06
		c-1.28,5.3-0.9,9.43,1.14,12.39c2.04,2.97,5.39,5.02,10.05,6.15c2.14,0.53,4.17,0.85,6.1,0.98c1.93,0.14,3.91-0.01,5.95-0.43v5.65
		c-1.73,0.57-3.85,0.79-6.37,0.64C611.24,121.97,608.76,121.6,606.31,120.99z"/>
	<path class="st0" d="M632.76,128.35l20.22-56.5l5.97,2.14l-20.22,56.5L632.76,128.35z M657.27,55.9l2.87-8.04l8.5,3.03l-2.87,8.04
		L657.27,55.9z"/>
	<path class="st0" d="M685.79,152.41c-5.69-2.97-10.03-6.69-13.02-11.15c-2.98-4.46-4.53-9.37-4.6-14.73
		c-0.08-5.37,1.31-10.78,4.18-16.26c2.86-5.47,6.5-9.68,10.92-12.59c4.42-2.91,9.31-4.41,14.68-4.5c5.37-0.08,10.86,1.35,16.48,4.29
		c5.76,3.03,10.12,6.75,13.07,11.19c2.95,4.44,4.48,9.3,4.61,14.6c0.12,5.29-1.26,10.68-4.12,16.15c-2.87,5.48-6.54,9.7-10.99,12.7
		c-4.45,2.99-9.35,4.53-14.68,4.64C696.99,156.84,691.48,155.4,685.79,152.41z M688.45,147.07c6.85,3.58,13.31,4.35,19.38,2.31
		c6.08-2.05,10.85-6.39,14.33-13.02c3.43-6.56,4.25-12.91,2.48-19.07c-1.77-6.17-6.08-11.04-12.93-14.62
		c-6.85-3.59-13.31-4.35-19.38-2.3c-6.07,2.05-10.83,6.35-14.27,12.91c-3.47,6.64-4.32,13.03-2.54,19.18
		C677.29,138.61,681.61,143.48,688.45,147.07z"/>
	<path class="st0" d="M730,177.01l37.8-46.61l4.74,3.84l-8.68,10.71l0.19,0.15c4.48-1.91,9.21-2.64,14.17-2.18
		c4.96,0.47,9.72,2.54,14.26,6.23c4.18,3.38,7.18,6.87,9.03,10.46s2.42,7.41,1.72,11.44c-0.71,4.04-2.87,8.3-6.52,12.77
		l-23.11,28.52l-4.93-3.99l22.88-28.24c2.47-3.03,4.05-6.03,4.79-9c0.72-2.97,0.52-5.91-0.62-8.83c-1.15-2.91-3.42-5.75-6.83-8.52
		c-3.78-3.07-7.78-4.97-11.95-5.69c-4.18-0.72-8.13-0.46-11.84,0.76c-3.72,1.23-6.78,3.33-9.19,6.29L734.92,181L730,177.01z"/>
	<path class="st0" d="M834.22,288.21c-4.86-7.31-7.56-14.59-8.12-21.83c-0.56-7.24,0.95-14.13,4.53-20.64
		c3.58-6.52,9.16-12.3,16.75-17.33c7.59-5.04,15.06-7.94,22.4-8.72c7.34-0.77,14.24,0.53,20.73,3.9
		c6.47,3.36,12.16,8.73,17.06,16.12c3.73,5.63,6.27,11.29,7.62,16.98c1.33,5.7,1.47,11.34,0.4,16.93l-5.96-0.15
		c0.67-5.61,0.43-10.85-0.69-15.72c-1.13-4.86-3.34-9.77-6.61-14.71c-6.2-9.35-13.73-14.89-22.6-16.62
		c-8.86-1.74-18.43,0.81-28.73,7.64c-10.23,6.79-16.28,14.6-18.12,23.44c-1.85,8.84,0.33,17.93,6.53,27.28
		c3.29,4.94,6.95,8.88,10.99,11.81c4.04,2.93,8.78,5.18,14.21,6.74l-2.18,5.55c-5.57-1.19-10.73-3.52-15.48-7.01
		C842.19,298.4,837.96,293.84,834.22,288.21z"/>
	<path class="st0" d="M869.06,355.94c-2.52-6.17-3.65-12.08-3.37-17.73c0.28-5.65,2.03-10.64,5.26-14.99
		c3.22-4.36,7.88-7.77,13.99-10.28c5.63-2.31,11.08-3.17,16.33-2.59c5.24,0.57,9.99,2.56,14.24,5.97
		c4.25,3.39,7.64,8.18,10.16,14.35c2.5,6.1,3.38,11.65,2.66,16.64c-0.72,5-2.78,9.35-6.18,13.07c-3.4,3.72-7.92,6.73-13.56,9.05
		l-1.81,0.74l-21.66-52.94l5.18-2.13l20.56,50.23l-3.8-1.87c7-2.86,11.65-6.99,13.98-12.37c2.32-5.39,2.08-11.5-0.73-18.36
		c-1.81-4.44-4.32-8.04-7.52-10.82c-3.21-2.77-6.9-4.51-11.1-5.21c-4.2-0.7-8.63-0.09-13.29,1.81l-0.9,0.37
		c-4.97,2.03-8.75,4.81-11.35,8.34c-2.6,3.52-4.01,7.57-4.25,12.15c-0.23,4.58,0.68,9.39,2.74,14.43c1.58,3.84,3.59,7.41,6.03,10.71
		c2.45,3.3,5.58,5.97,9.41,8.01l-3.36,4.67c-3.8-1.78-7.24-4.64-10.29-8.57C873.37,364.68,870.91,360.45,869.06,355.94z"/>
	<path class="st0" d="M885.53,399.23l58.92-11.43l1.16,5.98l-13.52,2.63l0.04,0.24c4.67,1.42,8.74,3.9,12.25,7.44
		c3.5,3.55,5.82,8.19,6.93,13.94c1.02,5.27,1.09,9.87,0.19,13.81c-0.89,3.94-2.9,7.23-6.03,9.87c-3.14,2.63-7.53,4.51-13.2,5.61
		l-36.04,6.99l-1.21-6.23l35.68-6.92c3.83-0.74,6.99-2.02,9.45-3.82c2.47-1.81,4.2-4.2,5.2-7.17c0.99-2.97,1.08-6.6,0.25-10.91
		c-0.93-4.79-2.77-8.81-5.51-12.04c-2.74-3.24-5.93-5.58-9.56-7.03c-3.64-1.45-7.33-1.81-11.08-1.07l-32.69,6.33L885.53,399.23z"/>
	<path class="st0" d="M897.22,502.86c-0.16-6.51,1.46-11.72,4.86-15.62c3.4-3.91,8.35-5.94,14.85-6.11l35.12-0.88l-0.36-14.02
		l5.61-0.14l0.35,14.02l18.41-0.46l0.16,6.34l-18.41,0.46l0.64,25.49l-5.61,0.13l-0.64-25.48l-34.01,0.85
		c-5.45,0.14-9.34,1.58-11.67,4.32c-2.33,2.73-3.43,6.51-3.31,11.3c0.06,2.2,0.27,4.25,0.64,6.15c0.37,1.89,1.03,3.77,1.97,5.62
		l-5.45,1.48c-1.02-1.52-1.78-3.52-2.28-5.98C897.57,507.86,897.29,505.37,897.22,502.86z"/>
	<path class="st0" d="M893.07,557.67c0.9-6.61,2.87-12.29,5.93-17.05c3.06-4.76,7.08-8.21,12.04-10.38s10.72-2.8,17.24-1.92
		c6.05,0.81,11.19,2.78,15.45,5.9c4.26,3.12,7.38,7.21,9.36,12.28c1.98,5.07,2.53,10.91,1.64,17.51c-0.88,6.53-2.89,11.79-6,15.75
		c-3.12,3.97-7.08,6.71-11.88,8.25c-4.81,1.52-10.23,1.88-16.27,1.07l-1.94-0.27l7.65-56.69l5.56,0.75l-7.25,53.79l-2.35-3.52
		c7.49,1.02,13.59-0.24,18.29-3.74c4.69-3.51,7.54-8.93,8.53-16.27c0.64-4.76,0.27-9.13-1.12-13.13c-1.39-4.01-3.73-7.36-7.01-10.05
		c-3.28-2.7-7.43-4.39-12.42-5.06l-0.97-0.13c-5.32-0.71-9.98-0.2-13.99,1.56c-4.01,1.75-7.26,4.56-9.75,8.41
		c-2.49,3.85-4.09,8.47-4.82,13.87c-0.56,4.11-0.6,8.2-0.13,12.29c0.48,4.08,1.86,7.97,4.16,11.64l-5.25,2.38
		c-2.41-3.45-3.96-7.64-4.65-12.57S892.42,562.5,893.07,557.67z"/>
	<path class="st0" d="M884.82,603.89l57.43,17.38l-1.77,5.83l-12.6-3.81l-0.07,0.24c3.58,3.03,5.85,7.05,6.8,12.06
		c0.95,5,0.77,10.24-0.54,15.7l-1.22,4.86l-5.93-1.03l1.64-7.53c1.58-6.91,1.21-12.84-1.11-17.79c-2.33-4.95-5.94-8.17-10.84-9.66
		l-33.63-10.17L884.82,603.89z"/>
</g>
<g>
</g>
<g>
	<path class="st0" d="M740.66,827.82c2.23,3.59,2.19,7.27,0.15,11.16c-2.83,5.4-9.37,11.18-19.1,17.22
		c-9.73,6.04-17.73,9.28-23.82,9.42c-4.4,0.1-7.79-1.45-10.01-5.02c-2.19-3.51-2.12-7.3-0.11-11.28c2.82-5.4,9.37-10.99,19.1-17.03
		s17.71-9.49,23.81-9.62C735.13,822.65,738.49,824.31,740.66,827.82z M734.75,831.5c-1.04-1.69-2.79-2.53-5.1-2.51
		c-4.44,0.02-11.03,2.8-19.73,8.2c-8.7,5.4-14.11,10.08-16.09,14.05c-1.14,2.11-1.07,3.99-0.03,5.68c1.01,1.61,2.66,2.51,5.1,2.51
		c4.44-0.02,11.03-2.8,19.73-8.2c8.7-5.4,14.11-10.08,16.1-14.04C735.73,835.04,735.74,833.11,734.75,831.5z M720.22,909.41
		l44.16-27.42l-7.31-11.77l-44.59,27.69l-3.1-4.97l22.6-14.03l-5.49-8.84l-26.61,16.52l-3.14-5.04l58.93-36.59l3.14,5.04l-26.4,16.4
		l5.49,8.84l21.94-13.62l13.52,21.79l-50.01,31.05L720.22,909.41z"/>
	<path class="st0" d="M684.22,894.47l2.05,5.58l-65.16,23.98l-2.05-5.58l29.43-10.83l-3.01-8.17l-24.5,9.02l-6.6-17.95l48.84-17.96
		l-2.68-7.28l-50.62,18.62l-1.93-5.26l57.08-21l6.57,17.87l-48.82,17.96l2.7,7.36l48.82-17.96l1.95,5.25l-24.34,8.95l3,8.16
		L684.22,894.47z M628.65,929.32l55.3-20.35l7.74,21.02l-55.3,20.35L628.65,929.32z M637.09,932.27l3.77,10.27l42.36-15.59
		l-3.77-10.26L637.09,932.27z"/>
	<path class="st0" d="M593.69,943.52l-45.88,7l2.44,16l-6.81,1.04l-6.95-45.63l26.12-3.99l-3.01-19.83l-30.31,4.62l-0.91-5.97
		l67.77-10.33l0.91,5.96l-30.56,4.67l3.03,19.83l26.47-4.04l6.96,45.63l-6.81,1.04L593.69,943.52z M544.21,926.94l2.68,17.53
		l45.89-7l-2.68-17.54L544.21,926.94z"/>
	<path class="st0" d="M448.49,954.2l63.88,3.16l-0.29,6.01l-28.46-1.4l-0.5,10.23l-7.05-0.35l0.5-10.23l-28.37-1.4L448.49,954.2z
		 M511.66,933.62c-0.22,4.46-2.37,7.81-5.94,10.22c-5.52,3.69-14.38,5.15-24.87,4.64c-10.5-0.52-19.17-2.84-24.31-7.06
		c-3.31-2.75-5.12-6.29-4.9-10.76c0.21-4.39,2.37-7.81,5.93-10.22c4.9-3.3,12.38-4.74,21.27-4.65l0.7-14.36l-30.69-1.51l0.29-6.02
		l68.44,3.38l-0.29,6.02l-30.87-1.53l-0.7,14.36c9.01,0.78,16.48,2.97,21.03,6.73C510.07,925.61,511.87,929.24,511.66,933.62z
		 M504.78,933.27c0.11-2.31-0.83-4.26-2.72-5.91c-3.55-3.36-10.78-5.18-19.9-5.63c-9.11-0.46-16.41,0.65-20.35,3.65
		c-2.05,1.44-3.18,3.29-3.29,5.61c-0.11,2.33,0.83,4.27,2.72,6c3.63,3.29,10.78,5.11,19.89,5.56c9.11,0.44,16.5-0.65,20.35-3.57
		C503.54,937.44,504.66,935.6,504.78,933.27z"/>
	<path class="st0" d="M376.07,897.81l-13.1,51.22l-6.51-1.66l13.1-51.23L376.07,897.81z M374.23,871.99l57.57,14.73l-6.25,24.45
		l-6.68-1.71l4.79-18.69l-50.9-13.02L374.23,871.99z M383.19,938.47l-3.67,14.35l-6.43-1.65l12.63-49.38l6.43,1.64l-7.48,29.2
		l11.93,3.05l-1.5,5.84L383.19,938.47z M411.51,931.31c4.15-5.79,12.77-10.33,21.14-11.39l-1.6,6.26
		c-7.88,1.63-16.49,7.15-19.59,19.25l-3.74,14.6l-6.59-1.69l3.7-14.43c3.08-12.09-1.95-19.87-8.33-24.79l1.6-6.26
		C404.96,917.28,410.33,924.43,411.51,931.31z"/>
	<path class="st0" d="M271.78,909.79l33.66-69.31l6.28,3.05l-17,35l14.55,7.07l-2.66,5.49l-14.56-7.06l-13.99,28.8L271.78,909.79z
		 M335.12,903.71l-23.7-11.51l2.63-5.42l23.7,11.51l11.57-23.84l-19.11-9.3c-5.82-2.82-11.76-4.95-16.39-5.08l2.52-5.19
		c4.62-0.04,10.73,2.15,16.69,5.04l25.01,12.15l-30.68,63.19l-32.52-15.79l2.63-5.42l26.41,12.82L335.12,903.71z"/>
</g>
</svg>
