<?xml version="1.0" encoding="utf-8"?>
<!-- Generator: Adobe Illustrator 27.2.0, SVG Export Plug-In . SVG Version: 6.00 Build 0)  -->
<svg version="1.1" id="Layer_1" xmlns="http://www.w3.org/2000/svg" xmlns:xlink="http://www.w3.org/1999/xlink" x="0px" y="0px"
	 viewBox="0 0 500 500" style="enable-background:new 0 0 500 500;" xml:space="preserve">
<style type="text/css">
	.st0{fill:none;stroke:#FFFFFF;stroke-width:10;stroke-linecap:round;stroke-linejoin:round;stroke-miterlimit:10;}
	.st1{fill:#FFFFFF;stroke:#FFFFFF;stroke-width:10;stroke-linecap:round;stroke-linejoin:round;stroke-miterlimit:10;}
</style>
<path class="st0" d="M117.91,203.89c3.73-2.64,7.8-3.94,9.83-4.72c3.02-1.19,5.77-3,8.23-5.13c4.24-3.66,10.08-10.97,17.22-17.17
	c0,0,4.55-5.18,28.7-7.77c0,0,3.07-11.84,3.4-26.77c0.18-8.76,19.28,5.46,35.74,19.41c10.67,9.02,20.25,17.93,22.89,20.4
	c0.46,0.43,0.91,0.84,1.37,1.24c4.75,3.96,32.9,29.36,27.56,65.49c-3.35,22.53-19.1,28.53-31.98,29.52
	c-12.35,0.94-24.41-4.29-32.08-13.97c-7.19-9.04-13.62-23.17-9.88-43.11c5.44-29.16,6.83-45.5,22.13-59.57
	c5.21-4.83,12.02-9.35,21.16-14.05c35.99-18.49,71.99,6.33,78.8,18.01c6.81,11.66,5.36,15.55,26.27,15.06
	c4.98-0.13,9.73-0.05,14.12,0.1"/>
<path class="st0" d="M393.85,207.01c-2.01,11.41-7.57,26.7-22.73,33.56c-13.23,5.99-22.76,11.74-28.88,15.9
	c-8.1,5.51-12.88,15.06-11.61,24.79c1.19,9.42,7.9,19.38,29.77,21.59h125.03"/>
<path class="st0" d="M109.91,219.66c0.48,19.46,44.73,36.96,44.73,36.96s14.76,4.22,12.17,22.38c-1.07,7.44-5.97,12.83-11.33,16.56
	c-7.04,4.9-15.55,7.29-24.13,7.29H14.57"/>
<path class="st1" d="M393.85,207.01c-32.69-2.59-32.46-26.16-32.46-26.16c14.12,0.48,24.31,1.96,24.31,1.96s8.15,0.25,9.25,10.11
	C394.94,192.92,395.27,199.01,393.85,207.01z"/>
<path class="st1" d="M109.91,219.66c-0.2-7.93,3.68-12.75,8-15.77C117.91,203.89,134.4,212.53,109.91,219.66z"/>
</svg>
