<svg width="24" height="24" viewBox="0 0 24 24" fill="none" xmlns="http://www.w3.org/2000/svg">
<path d="M12.425 15.4494C12.2816 15.4494 12.147 15.4269 12.0215 15.3821C11.8959 15.3372 11.7793 15.261 11.6717 15.1534L6.72101 10.2027C6.5237 10.0054 6.42505 9.75428 6.42505 9.44935C6.42505 9.14442 6.5237 8.8933 6.72101 8.69599C6.91832 8.49868 7.16944 8.40002 7.47438 8.40002C7.77931 8.40002 8.03043 8.49868 8.22774 8.69599L12.425 12.8933L16.6224 8.69599C16.8197 8.49868 17.0708 8.40002 17.3757 8.40002C17.6807 8.40002 17.9318 8.49868 18.1291 8.69599C18.3264 8.8933 18.425 9.14442 18.425 9.44935C18.425 9.75428 18.3264 10.0054 18.1291 10.2027L13.1784 15.1534C13.0708 15.261 12.9542 15.3372 12.8286 15.3821C12.7031 15.4269 12.5685 15.4494 12.425 15.4494Z" fill="white"/>
</svg>
