<svg width="10" height="19" viewBox="0 0 10 19" fill="none" xmlns="http://www.w3.org/2000/svg">
<path d="M7.12558 9.5042L0.360939 2.26057C0.13097 2.01435 0.0133291 1.70485 0.00801444 1.33207C0.00267213 0.959316 0.120313 0.644123 0.360939 0.386492C0.601536 0.12883 0.893231 0 1.23602 0C1.57882 0 1.87051 0.12883 2.11111 0.386492L9.5752 8.37904C9.73066 8.54547 9.84031 8.72103 9.90417 8.90572C9.96806 9.09038 10 9.28987 10 9.5042C10 9.71852 9.96806 9.91802 9.90417 10.1027C9.84031 10.2874 9.73066 10.4629 9.5752 10.6294L2.11111 18.6219C1.88117 18.8682 1.59213 18.9941 1.244 18.9998C0.895887 19.0055 0.601536 18.8796 0.360939 18.6219C0.120313 18.3643 0 18.0519 0 17.6849C0 17.3178 0.120313 17.0055 0.360939 16.7478L7.12558 9.5042Z" fill="white"/>
</svg>
