<svg width="15" height="19" viewBox="0 0 15 19" fill="none" xmlns="http://www.w3.org/2000/svg">
<path d="M0 17.3944V1.60556C0 1.13642 0.15428 0.751547 0.462841 0.450928C0.771373 0.150309 1.13132 0 1.54269 0C1.67397 0 1.80963 0.0193643 1.94968 0.0580888C2.08972 0.0968134 2.2254 0.154884 2.35671 0.232304L14.2976 8.14384C14.5317 8.31008 14.7073 8.50934 14.8244 8.74163C14.9415 8.97392 15 9.22671 15 9.5C15 9.77329 14.9415 10.0261 14.8244 10.2584C14.7073 10.4907 14.5317 10.6899 14.2976 10.8562L2.35671 18.7677C2.2254 18.8451 2.08972 18.9032 1.94968 18.9419C1.80963 18.9806 1.67397 19 1.54269 19C1.13132 19 0.771373 18.8497 0.462841 18.5491C0.15428 18.2485 0 17.8636 0 17.3944ZM2.56016 15.4508L11.5537 9.5L2.56016 3.54921V15.4508Z" fill="white"/>
</svg>
