<svg width="11" height="19" viewBox="0 0 11 19" fill="none" xmlns="http://www.w3.org/2000/svg">
<path d="M3.16186 9.4958L10.603 16.7394C10.8559 16.9856 10.9853 17.2951 10.9912 17.6679C10.9971 18.0407 10.8677 18.3559 10.603 18.6135C10.3383 18.8712 10.0174 19 9.64038 19C9.2633 19 8.94244 18.8712 8.67778 18.6135L0.467275 10.621C0.296277 10.4545 0.175656 10.279 0.105411 10.0943C0.0351366 9.90962 0 9.71013 0 9.4958C0 9.28148 0.0351366 9.08198 0.105411 8.89732C0.175656 8.71264 0.296277 8.53708 0.467275 8.37065L8.67778 0.378097C8.93072 0.131848 9.24866 0.00587727 9.63161 0.000186371C10.0145 -0.00553417 10.3383 0.120436 10.603 0.378097C10.8677 0.635729 11 0.948076 11 1.31514C11 1.6822 10.8677 1.99455 10.603 2.25218L3.16186 9.4958Z" fill="white"/>
</svg>
