<svg width="21" height="21" viewBox="0 0 21 21" fill="none" xmlns="http://www.w3.org/2000/svg">
<path d="M14.9423 21C14.2816 21 13.7126 20.7613 13.2353 20.2839C12.758 19.8066 12.5193 19.2376 12.5193 18.577V2.42305C12.5193 1.76241 12.758 1.19341 13.2353 0.716063C13.7126 0.238688 14.2816 0 14.9423 0H18.577C19.2376 0 19.8066 0.238688 20.2839 0.716063C20.7613 1.19341 21 1.76241 21 2.42305V18.577C21 19.2376 20.7613 19.8066 20.2839 20.2839C19.8066 20.7613 19.2376 21 18.577 21H14.9423ZM2.42305 21C1.7624 21 1.19341 20.7613 0.716062 20.2839C0.238687 19.8066 0 19.2376 0 18.577V2.42305C0 1.76241 0.238687 1.19341 0.716062 0.716063C1.19341 0.238688 1.7624 0 2.42305 0H6.05771C6.71836 0 7.28735 0.238688 7.7647 0.716063C8.24205 1.19341 8.48072 1.76241 8.48072 2.42305V18.577C8.48072 19.2376 8.24205 19.8066 7.7647 20.2839C7.28735 20.7613 6.71836 21 6.05771 21H2.42305ZM14.9423 18.577H18.577V2.42305H14.9423V18.577ZM2.42305 18.577H6.05771V2.42305H2.42305V18.577Z" fill="white"/>
</svg>
