<svg width="25" height="25" viewBox="0 0 25 25" fill="none" xmlns="http://www.w3.org/2000/svg">
<path d="M12.5002 13.9583L15.521 16.9792C15.712 17.1701 15.955 17.2656 16.2502 17.2656C16.5453 17.2656 16.7884 17.1701 16.9793 16.9792C17.1703 16.7882 17.2658 16.5451 17.2658 16.25C17.2658 15.9549 17.1703 15.7118 16.9793 15.5208L13.9585 12.5L16.9793 9.47918C17.1703 9.2882 17.2658 9.04515 17.2658 8.75001C17.2658 8.45487 17.1703 8.21182 16.9793 8.02084C16.7884 7.82987 16.5453 7.73439 16.2502 7.73439C15.955 7.73439 15.712 7.82987 15.521 8.02084L12.5002 11.0417L9.47933 8.02084C9.28836 7.82987 9.0453 7.73439 8.75016 7.73439C8.45502 7.73439 8.21197 7.82987 8.021 8.02084C7.83002 8.21182 7.73454 8.45487 7.73454 8.75001C7.73454 9.04515 7.83002 9.2882 8.021 9.47918L11.0418 12.5L8.021 15.5208C7.83002 15.7118 7.73454 15.9549 7.73454 16.25C7.73454 16.5451 7.83002 16.7882 8.021 16.9792C8.21197 17.1701 8.45502 17.2656 8.75016 17.2656C9.0453 17.2656 9.28836 17.1701 9.47933 16.9792L12.5002 13.9583ZM12.5002 22.9167C11.0592 22.9167 9.70502 22.6432 8.43766 22.0964C7.1703 21.5495 6.06787 20.8073 5.13037 19.8698C4.19287 18.9323 3.45068 17.8299 2.90381 16.5625C2.35693 15.2951 2.0835 13.941 2.0835 12.5C2.0835 11.059 2.35693 9.70487 2.90381 8.43751C3.45068 7.17015 4.19287 6.06772 5.13037 5.13022C6.06787 4.19272 7.1703 3.45053 8.43766 2.90366C9.70502 2.35678 11.0592 2.08334 12.5002 2.08334C13.9411 2.08334 15.2953 2.35678 16.5627 2.90366C17.83 3.45053 18.9325 4.19272 19.87 5.13022C20.8075 6.06772 21.5496 7.17015 22.0965 8.43751C22.6434 9.70487 22.9168 11.059 22.9168 12.5C22.9168 13.941 22.6434 15.2951 22.0965 16.5625C21.5496 17.8299 20.8075 18.9323 19.87 19.8698C18.9325 20.8073 17.83 21.5495 16.5627 22.0964C15.2953 22.6432 13.9411 22.9167 12.5002 22.9167ZM12.5002 20.8333C14.8266 20.8333 16.797 20.0261 18.4116 18.4115C20.0262 16.7969 20.8335 14.8264 20.8335 12.5C20.8335 10.1736 20.0262 8.20314 18.4116 6.58855C16.797 4.97397 14.8266 4.16668 12.5002 4.16668C10.1738 4.16668 8.20329 4.97397 6.5887 6.58855C4.97412 8.20314 4.16683 10.1736 4.16683 12.5C4.16683 14.8264 4.97412 16.7969 6.5887 18.4115C8.20329 20.0261 10.1738 20.8333 12.5002 20.8333Z" fill="white"/>
</svg>
