<svg width="30" height="30" viewBox="0 0 30 30" fill="none" xmlns="http://www.w3.org/2000/svg">
<path d="M15 23.6875C14.8333 23.6875 14.6771 23.6615 14.5313 23.6094C14.3854 23.5573 14.25 23.4688 14.125 23.3438L8.375 17.5938C8.14583 17.3646 8.03125 17.0729 8.03125 16.7188C8.03125 16.3646 8.14583 16.0729 8.375 15.8438C8.60417 15.6146 8.89583 15.5 9.25 15.5C9.60417 15.5 9.89583 15.6146 10.125 15.8438L15 20.7188L19.875 15.8438C20.1042 15.6146 20.3958 15.5 20.75 15.5C21.1042 15.5 21.3958 15.6146 21.625 15.8438C21.8542 16.0729 21.9688 16.3646 21.9688 16.7188C21.9688 17.0729 21.8542 17.3646 21.625 17.5938L15.875 23.3438C15.75 23.4688 15.6146 23.5573 15.4688 23.6094C15.3229 23.6615 15.1667 23.6875 15 23.6875Z" fill="white"/>
</svg>
