<svg width="23" height="16" viewBox="0 0 23 16" fill="none" xmlns="http://www.w3.org/2000/svg">
<path d="M1.30868 16C0.937885 16 0.627074 15.8722 0.376245 15.6167C0.125415 15.3611 0 15.0444 0 14.6667C0 14.2889 0.125415 13.9722 0.376245 13.7167C0.627074 13.4611 0.937885 13.3333 1.30868 13.3333H15.7041C16.0749 13.3333 16.3857 13.4611 16.6366 13.7167C16.8874 13.9722 17.0128 14.2889 17.0128 14.6667C17.0128 15.0444 16.8874 15.3611 16.6366 15.6167C16.3857 15.8722 16.0749 16 15.7041 16H1.30868ZM20.808 13.7333L16.0967 8.93333C15.835 8.66667 15.7041 8.35556 15.7041 8C15.7041 7.64444 15.835 7.33333 16.0967 7.06667L20.808 2.26667C21.0479 2.02222 21.3532 1.9 21.724 1.9C22.0948 1.9 22.4002 2.02222 22.6401 2.26667C22.88 2.51111 23 2.82222 23 3.2C23 3.57778 22.88 3.88889 22.6401 4.13333L18.8449 8L22.6401 11.8667C22.88 12.1111 23 12.4222 23 12.8C23 13.1778 22.88 13.4889 22.6401 13.7333C22.4002 13.9778 22.0948 14.1 21.724 14.1C21.3532 14.1 21.0479 13.9778 20.808 13.7333ZM1.30868 9.33333C0.937885 9.33333 0.627074 9.20556 0.376245 8.95C0.125415 8.69444 0 8.37778 0 8C0 7.62222 0.125415 7.30556 0.376245 7.05C0.627074 6.79445 0.937885 6.66667 1.30868 6.66667H11.7781C12.1489 6.66667 12.4597 6.79445 12.7105 7.05C12.9614 7.30556 13.0868 7.62222 13.0868 8C13.0868 8.37778 12.9614 8.69444 12.7105 8.95C12.4597 9.20556 12.1489 9.33333 11.7781 9.33333H1.30868ZM1.30868 2.66667C0.937885 2.66667 0.627074 2.53889 0.376245 2.28333C0.125415 2.02778 0 1.71111 0 1.33333C0 0.955556 0.125415 0.638889 0.376245 0.383333C0.627074 0.127778 0.937885 0 1.30868 0H15.7041C16.0749 0 16.3857 0.127778 16.6366 0.383333C16.8874 0.638889 17.0128 0.955556 17.0128 1.33333C17.0128 1.71111 16.8874 2.02778 16.6366 2.28333C16.3857 2.53889 16.0749 2.66667 15.7041 2.66667H1.30868Z" fill="#1D1D1D"/>
</svg>
