<svg width="30" height="30" viewBox="0 0 30 30" fill="none" xmlns="http://www.w3.org/2000/svg">
<path d="M15 13.4688L10.125 18.3438C9.89583 18.5729 9.60417 18.6875 9.25 18.6875C8.89583 18.6875 8.60417 18.5729 8.375 18.3438C8.14583 18.1146 8.03125 17.8229 8.03125 17.4688C8.03125 17.1146 8.14583 16.8229 8.375 16.5938L14.125 10.8438C14.25 10.7188 14.3854 10.6302 14.5313 10.5781C14.6771 10.526 14.8333 10.5 15 10.5C15.1667 10.5 15.3229 10.526 15.4688 10.5781C15.6146 10.6302 15.75 10.7188 15.875 10.8438L21.625 16.5938C21.8542 16.8229 21.9688 17.1146 21.9688 17.4688C21.9688 17.8229 21.8542 18.1146 21.625 18.3438C21.3958 18.5729 21.1042 18.6875 20.75 18.6875C20.3958 18.6875 20.1042 18.5729 19.875 18.3438L15 13.4688Z" fill="white"/>
</svg>
